<svg xmlns="http://www.w3.org/2000/svg" xmlns:xlink="http://www.w3.org/1999/xlink" fill="none" version="1.1" width="30.000001907348633" height="30.000001907348633" viewBox="0 0 30.000001907348633 30.000001907348633"><defs><mask id="master_svg0_253_9004"><g style="mix-blend-mode:passthrough"><path d="M0,30L30,30L30,0L0,0L0,30Z" fill="#FFFFFF" fill-opacity="1"/></g></mask></defs><g style="mix-blend-mode:passthrough"><g mask="url(#master_svg0_253_9004)"><g style="mix-blend-mode:passthrough"><path d="M20.2,15.60004Q19.2242,15.60004,18.3313,15.22236Q17.8829,15.03268,17.488,14.76191L9.75456,14.76191C9.103860000000001,14.76191,8.72536,14.02641,9.103570000000001,13.49692L10.00713,12.231919999999999C10.30747,11.81145,10.792390000000001,11.5619,11.30911,11.5619L15.4596,11.5619Q15.55,12.13039,15.7777,12.66874Q15.8011,12.72417,15.8258,12.7788Q15.8011,12.72418,15.7777,12.668759999999999Q15.4,11.77583,15.4,10.80003Q15.4,9.82423,15.7777,8.9313Q16.1421,8.069700000000001,16.8059,7.40592Q17.4697,6.742132,18.3313,6.377706Q19.2242,6.0000286102,20.2,6.0000286102Q21.1758,6.0000286102,22.0688,6.377706Q22.9304,6.742132,23.5941,7.40592Q24.2579,8.069700000000001,24.6224,8.9313Q25,9.82423,25,10.80003Q25,11.77583,24.6224,12.668759999999999Q24.3489,13.31533,23.9068,13.8505C24.0992,14.2685,24.2,14.72483,24.2,15.1886L24.2,21.194699999999997C24.2,22.1586,23.5015,22.9621,22.5748,23.1429L22.6,23.1429C22.6,24.0265,21.8837,24.7429,21,24.7429C20.1291,24.7429,19.4207,24.047,19.4005,23.181L9.79953,23.181C9.779309999999999,24.047,9.07091,24.7429,8.19998,24.7429C7.31632,24.7429,6.59998,24.0265,6.59998,23.1429L6.62524,23.1429C5.698554,22.9621,5,22.1586,5,21.194699999999997L5,15.1886C5,14.5714,5.178486,13.96738,5.5139510000000005,13.44931L7.94121,9.70081C8.312190000000001,9.12789,8.9553,8.780940000000001,9.64629,8.780940000000001L15.8443,8.780940000000001Q15.8098,8.85535,15.7777,8.93129Q15.4819,9.63069,15.4177,10.38095L9.64629,10.38095Q9.40695,10.38095,9.28423,10.570450000000001L6.85698,14.31895Q6.6,14.71581,6.6,15.1886L6.6,21.194699999999997Q6.6,21.346600000000002,6.71344,21.458Q6.83851,21.581,7.02105,21.581L22.179,21.581Q22.3615,21.581,22.4866,21.458Q22.6,21.346600000000002,22.6,21.1948L22.6,15.1886Q22.6,15.07554,22.5853,14.96683Q22.3366,15.10907,22.0688,15.22236Q21.1758,15.60004,20.2,15.60004ZM20.2,14.00004Q19.5487,14.00004,18.9546,13.748750000000001Q18.3804,13.50589,17.9373,13.06278Q17.4942,12.61966,17.2513,12.045480000000001Q17,11.45138,17,10.80003Q17,10.14869,17.2513,9.554590000000001Q17.4942,8.9804,17.9373,8.53729Q18.3804,8.09417,18.9546,7.85131Q19.5487,7.60003,20.2,7.60003Q20.851399999999998,7.60003,21.4455,7.85131Q22.0197,8.09417,22.4628,8.53729Q22.9059,8.9804,23.1487,9.554590000000001Q23.4,10.14869,23.4,10.80003Q23.4,11.45138,23.1487,12.045480000000001Q22.9059,12.61966,22.4628,13.06278Q22.0197,13.50589,21.4455,13.748750000000001Q20.851399999999998,14.00004,20.2,14.00004ZM18.6,10.80001C18.6,11.68367,19.3163,12.40001,20.2,12.40001C21.0836,12.40001,21.8,11.68367,21.8,10.80001C21.8,9.916360000000001,21.0836,9.200009999999999,20.2,9.200009999999999C19.3163,9.200009999999999,18.6,9.916360000000001,18.6,10.80001ZM10.60003,18.8C10.60003,19.6837,9.88372,20.4,9.000029999999999,20.4C8.11633,20.4,7.40002,19.6837,7.40002,18.8C7.40002,17.9164,8.11633,17.2,9.000029999999999,17.2C9.88372,17.2,10.60003,17.9164,10.60003,18.8ZM21.8,18.8C21.8,19.6837,21.0836,20.4,20.2,20.4C19.3163,20.4,18.6,19.6837,18.6,18.8C18.6,17.9164,19.3163,17.2,20.2,17.2C21.0836,17.2,21.8,17.9164,21.8,18.8Z" fill-rule="evenodd" fill="#FFFFFF" fill-opacity="1"/></g></g></g></svg>