<svg xmlns="http://www.w3.org/2000/svg" xmlns:xlink="http://www.w3.org/1999/xlink" fill="none" version="1.1" width="30.75" height="30.75" viewBox="0 0 30.75 30.75"><g style="mix-blend-mode:passthrough"><path d="M15.375,0.5C7.16055,0.5,0.5,7.16055,0.5,15.375C0.5,23.5895,7.16055,30.25,15.375,30.25C23.5895,30.25,30.25,23.5895,30.25,15.375C30.25,7.16055,23.5895,0.5,15.375,0.5ZM14.5781,7.9375C14.432,7.9375,14.3125,8.057030000000001,14.3125,8.20312L14.3125,17.2344C14.3125,17.3805,14.432,17.5,14.5781,17.5L16.1719,17.5C16.317999999999998,17.5,16.4375,17.3805,16.4375,17.2344L16.4375,8.20312C16.4375,8.057030000000001,16.317999999999998,7.9375,16.1719,7.9375L14.5781,7.9375ZM15.375,22.8125C14.4951,22.8125,13.7812,22.0986,13.7812,21.2188C13.7812,20.3389,14.4951,19.625,15.375,19.625C16.2549,19.625,16.9688,20.3389,16.9688,21.2188C16.9688,22.0986,16.2549,22.8125,15.375,22.8125Z" fill-rule="evenodd" fill="#FF8731" fill-opacity="0.6000000238418579"/></g></svg>