<svg xmlns="http://www.w3.org/2000/svg" xmlns:xlink="http://www.w3.org/1999/xlink" fill="none" version="1.1" width="20" height="20" viewBox="0 0 20 20"><g style="mix-blend-mode:passthrough"><g><g style="mix-blend-mode:passthrough"><path d="M13.75108,8.11781L10.36335,12.02924L10.36335,12.02924C10.26507,12.14992,10.11807,12.22044,9.96245,12.22156L9.96245,12.22156C9.80683,12.22044,9.65983,12.14992,9.56156,12.02924L6.172008,8.11781L6.172008,8.11781C6.00569594,7.928657,5.955527,7.663972,6.0410848,7.427079L6.0410848,7.427079C6.120451,7.193205,6.328268,7.0265986,6.573803,7.00000000150056L13.347470000000001,7.00000000150056L13.347470000000001,7C13.59341,7.0251992,13.80217,7.191288,13.882,7.425273L13.882,7.425273C13.968119999999999,7.662413,13.91791,7.92765,13.75108,8.11691L13.75108,8.11781L13.75108,8.11781Z" fill="#FFFFFF" fill-opacity="1"/></g></g></g></svg>