<svg xmlns="http://www.w3.org/2000/svg" xmlns:xlink="http://www.w3.org/1999/xlink" fill="none" version="1.1" width="30" height="30.000001907348633" viewBox="0 0 30 30.000001907348633"><defs><mask id="master_svg0_253_9053"><g style="mix-blend-mode:passthrough"><path d="M0,30L30,30L30,0L0,0L0,30Z" fill="#FFFFFF" fill-opacity="1"/></g></mask></defs><g style="mix-blend-mode:passthrough"><g mask="url(#master_svg0_253_9053)"><g style="mix-blend-mode:passthrough"><path d="M10.82821,6.2593700000000005L10.80242,6.2593700000000005Q10.02956,6.2593700000000005,9.322,6.54938Q8.63943,6.82915,8.1137,7.3386Q7.587977,7.848050000000001,7.299272,8.5095Q7,9.19516,7,9.944099999999999L7,17.747Q7,18.496000000000002,7.299269,19.1816Q7.587974,19.8431,8.11371,20.3526Q8.63943,20.862,9.322,21.1418Q10.02956,21.4318,10.80242,21.4318L11.17638,21.4318Q11.24981,21.9678,11.463519999999999,22.4731Q11.77768,23.2158,12.349910000000001,23.7881Q12.922139999999999,24.3603,13.6649,24.6744Q14.434660000000001,25,15.27587,25Q16.11707,25,16.88684,24.6744Q17.6296,24.3603,18.2018,23.7881Q18.7741,23.2158,19.0882,22.4731Q19.3019,21.9678,19.3754,21.4318L19.749299999999998,21.4318Q20.522100000000002,21.4318,21.2297,21.1418Q21.912300000000002,20.862,22.438000000000002,20.3526Q22.9637,19.8431,23.2524,19.1816Q23.5517,18.496000000000002,23.5517,17.747L23.5517,9.944099999999999Q23.5517,9.19516,23.2524,8.5095Q22.9637,7.848050000000001,22.438000000000002,7.3386Q21.912300000000002,6.82915,21.2297,6.54938Q20.522100000000002,6.2593700000000005,19.749299999999998,6.2593700000000005L19.7237,6.2593700000000005Q19.688200000000002,4,17.1524,4L13.190909999999999,4Q12.11458,4,11.48544,4.59823Q10.84708,5.20523,10.82821,6.2593700000000005ZM12.82836,6.2593700000000005L17.723100000000002,6.2593700000000005Q17.718400000000003,6.12737,17.6933,6.06083Q17.5738,6,17.1524,6L13.190909999999999,6Q12.91366,6,12.8636,6.0476Q12.83275,6.0769400000000005,12.82836,6.2593700000000005ZM19.3259,20.0074L19.749299999999998,20.0074Q20.239,20.0074,20.6847,19.8247Q21.111800000000002,19.6497,21.4396,19.332Q21.7634,19.0183,21.939799999999998,18.6141Q22.1205,18.2,22.1205,17.747L22.1205,9.944099999999999Q22.1205,9.49117,21.939799999999998,9.077Q21.7634,8.67285,21.4396,8.3591Q21.111800000000002,8.04147,20.6847,7.86641Q20.239,7.68372,19.749299999999998,7.68372L10.80242,7.68372Q10.31273,7.68372,9.867,7.86641Q9.43989,8.04147,9.11211,8.3591Q8.78833,8.67286,8.611930000000001,9.077Q8.43116,9.49116,8.43116,9.944099999999999L8.43116,17.747Q8.43116,18.2,8.611930000000001,18.6141Q8.78834,19.0183,9.11213,19.3321Q9.43988,19.6497,9.86697,19.8247Q10.31273,20.0074,10.802430000000001,20.0074L11.2258,20.0074Q11.30707,19.621000000000002,11.463519999999999,19.2511Q11.77768,18.5084,12.349910000000001,17.9361Q12.922139999999999,17.3639,13.6649,17.049799999999998Q14.434660000000001,16.7242,15.27587,16.7242Q16.11707,16.7242,16.88684,17.049799999999998Q17.6296,17.3639,18.2018,17.9361Q18.7741,18.5084,19.0882,19.2511Q19.2447,19.621000000000002,19.3259,20.0074ZM10.44824,11.23687C10.44824,11.601189999999999,10.74358,11.89654,11.10791,11.89654L15.30582,11.89654C15.67014,11.89654,15.96548,11.601189999999999,15.96548,11.23687C15.96548,10.87255,15.67014,10.577210000000001,15.30582,10.577210000000001L11.10791,10.577210000000001C10.74358,10.577210000000001,10.44824,10.87255,10.44824,11.23687ZM14.36609,23.0166Q14.79968,23.2,15.27587,23.2Q15.75206,23.2,16.18564,23.0166Q16.60506,22.8392,16.929029999999997,22.5153Q17.253,22.1913,17.4304,21.7719Q17.613799999999998,21.3383,17.613799999999998,20.8621Q17.613799999999998,20.3859,17.4304,19.9523Q17.253,19.532899999999998,16.929029999999997,19.2089Q16.60506,18.884999999999998,16.18564,18.7076Q15.75206,18.5242,15.27587,18.5242Q14.79968,18.5242,14.36609,18.7076Q13.94668,18.884999999999998,13.6227,19.2089Q13.298729999999999,19.532899999999998,13.12133,19.9523Q12.937940000000001,20.3859,12.937940000000001,20.8621Q12.937940000000001,21.3383,13.12133,21.7719Q13.298729999999999,22.1913,13.6227,22.5153Q13.94668,22.8392,14.36609,23.0166ZM13.896609999999999,20.8621C13.896609999999999,21.6239,14.514140000000001,22.2414,15.27592,22.2414C16.03773,22.2414,16.65527,21.6239,16.65527,20.8621C16.65527,20.1003,16.03773,19.482799999999997,15.27592,19.482799999999997C14.514140000000001,19.482799999999997,13.896609999999999,20.1003,13.896609999999999,20.8621Z" fill-rule="evenodd" fill="#FFFFFF" fill-opacity="1"/></g></g></g></svg>