<svg xmlns="http://www.w3.org/2000/svg" xmlns:xlink="http://www.w3.org/1999/xlink" fill="none" version="1.1" width="14.000000953674316" height="10.303683280944824" viewBox="0 0 14.000000953674316 10.303683280944824"><path d="M2.9824,7.59193L0.610022,7.59193C0.273116,7.59193,0,7.31881,0,6.98191L0,3.32178C0,2.98487,0.273116,2.71175,0.610022,2.71175L2.9824,2.71175L6.21185,0.0691394C6.30306,-0.00563728,6.42921,-0.021126,6.5358,0.0293643C6.64239,0.0798544,6.71032,0.187274,6.71024,0.305218L6.71024,9.99846C6.71032,10.1164,6.64239,10.2238,6.5358,10.2743C6.42921,10.3248,6.30306,10.3093,6.21185,10.2345L2.98301,7.59193L2.9824,7.59193ZM11.843,5.15184L14,7.30888L13.1374,8.17145L10.9804,6.01441L8.82336,8.17145L7.96078,7.30888L10.1178,5.15184L7.96079,2.9948L8.82336,2.13223L10.9804,4.28927L13.1374,2.13223L14,2.9948L11.843,5.15184Z" fill="#FFFFFF" fill-opacity="1"/></svg>