<svg xmlns="http://www.w3.org/2000/svg" xmlns:xlink="http://www.w3.org/1999/xlink" fill="none" version="1.1" width="20.000001907348633" height="24" viewBox="0 0 20.000001907348633 24"><g style="mix-blend-mode:passthrough"><path d="M0.00244976,20.4L0.00244976,20.4L0,18L2.50001,16.8L2.50001,10.2C2.43415,8.50694,2.83242,6.82695,3.65501,5.328C4.0598,4.64072,4.6118,4.04365,5.27458,3.57618C5.93735,3.1087,6.69584,2.78144,7.50002,2.616L7.50002,0L12.5,0L12.5,2.616C13.3042,2.78144,14.0627,3.1087,14.7254,3.57618C15.3882,4.04365,15.9402,4.64072,16.345,5.328C17.1676,6.82695,17.5658,8.50694,17.5,10.2L17.5,16.8L20,18L20,20.4L0.00244976,20.4ZM9.99997,24C9.75881,24,9.52122,23.9665,9.29396,23.9023C8.89643,23.7899,8.53047,23.5834,8.23216,23.2971C7.76341,22.847,7.49997,22.2365,7.49997,21.6L12.5,21.6C12.5,22.2365,12.2366,22.847,11.7678,23.2971C11.4748,23.5784,11.1165,23.7826,10.7271,23.8963C10.4935,23.9644,10.2486,24,9.99997,24Z" fill-rule="evenodd" fill="#161616" fill-opacity="1"/></g></svg>