<svg xmlns="http://www.w3.org/2000/svg" xmlns:xlink="http://www.w3.org/1999/xlink" fill="none" version="1.1" width="13.999787330627441" height="13.999686241149902" viewBox="0 0 13.999787330627441 13.999686241149902"><g style="mix-blend-mode:passthrough"><path d="M12.5093,13.7442C12.8501,14.0849,13.4027,14.0848,13.7434,13.744L13.7446,13.744C14.0849,13.4029,14.0849,12.8508,13.7446,12.5097L10.9936,9.75871C12.7833,7.36241,12.6141,3.96746,10.4371,1.79049C8.04926,-0.597055,4.17802,-0.596796,1.79049,1.79107C-0.597055,4.17893,-0.596796,8.05017,1.79107,10.4377C3.96687,12.6135,7.36415,12.7838,9.75813,10.993L12.5093,13.7442ZM3.02768,2.86563C4.77723,1.20476,7.54193,1.27666,9.20279,3.02621L9.20162,3.02621C10.7879,4.70826,10.7887,7.33509,9.20331,9.01805C7.54922,10.774,4.78482,10.8566,3.02887,9.20246C2.97354,9.14997,2.9196,9.09605,2.86709,9.04074C1.20622,7.29119,1.27813,4.52649,3.02768,2.86563Z" fill-rule="evenodd" fill="#AFB0B0" fill-opacity="1"/></g></svg>