<svg xmlns="http://www.w3.org/2000/svg" xmlns:xlink="http://www.w3.org/1999/xlink" fill="none" version="1.1" width="20" height="20" viewBox="0 0 20 20"><path d="M6.95957,2.66041L9.35136,0.268617C9.70963,-0.089539,10.2904,-0.089539,10.6486,0.268617L13.0404,2.66041L16.4221,2.66041C16.9288,2.66041,17.3396,3.07116,17.3396,3.57786L17.3396,6.95957L19.7314,9.35136C20.0895,9.70963,20.0895,10.2904,19.7314,10.6486L17.3396,13.0404L17.3396,16.4221C17.3396,16.9288,16.9288,17.3396,16.4221,17.3396L13.0404,17.3396L10.6486,19.7314C10.2904,20.0895,9.70963,20.0895,9.35136,19.7314L6.95957,17.3396L3.57786,17.3396C3.07116,17.3396,2.66041,16.9288,2.66041,16.4221L2.66041,13.0404L0.268617,10.6486C-0.089539,10.2904,-0.089539,9.70963,0.268617,9.35136L2.66041,6.95957L2.66041,3.57786C2.66041,3.07116,3.07116,2.66041,3.57786,2.66041L6.95957,2.66041ZM10,12.7523C11.5201,12.7523,12.7523,11.5201,12.7523,10C12.7523,8.47992,11.5201,7.24765,10,7.24765C8.47992,7.24765,7.24765,8.47992,7.24765,10C7.24765,11.5201,8.47992,12.7523,10,12.7523Z" fill="#AFB0B0" fill-opacity="1"/></svg>