<svg xmlns="http://www.w3.org/2000/svg" xmlns:xlink="http://www.w3.org/1999/xlink" fill="none" version="1.1" width="13.257340431213379" height="9.999999046325684" viewBox="0 0 13.257340431213379 9.999999046325684"><path d="M0.592043,7.36817L2.89509,7.36817L6.02877,9.9329C6.11729,10.0055,6.23972,10.0205,6.34317,9.9715C6.44662,9.9225,6.51255,9.81824,6.51247,9.70378L6.51247,0.296222C6.51255,0.181754,6.44662,0.0775008,6.34317,0.0284988C6.23972,-0.0205033,6.11729,-0.00547113,6.02877,0.0671016L2.8945,2.63183L0.592043,2.63183C0.265066,2.63183,0,2.8969,0,3.22387L0,6.77613C0,7.1031,0.265066,7.36817,0.592043,7.36817ZM10.2912,8.97733L11.1295,9.81566C12.4368,8.62447,13.2573,6.90814,13.2573,4.99999C13.2592,3.08685,12.418,1.27008,10.9578,0.0339355L10.1171,0.874636C11.3564,1.88564,12.0747,3.40069,12.0733,4.99999C12.0751,6.51955,11.4264,7.96722,10.2912,8.97733ZM8.19005,6.87617L9.03193,7.71806C9.80573,7.06622,10.2971,6.09053,10.2971,4.99999C10.2981,3.87093,9.76144,2.80886,8.85195,2.13983L8,2.99178C8.66901,3.41035,9.11304,4.15337,9.11304,4.99999C9.1137,5.73485,8.77259,6.42823,8.19005,6.87617Z" fill-rule="evenodd" fill="#FFFFFF" fill-opacity="1"/></svg>