<svg xmlns="http://www.w3.org/2000/svg" xmlns:xlink="http://www.w3.org/1999/xlink" fill="none" version="1.1" width="20" height="20" viewBox="0 0 20 20"><g style="mix-blend-mode:passthrough"><g><g style="mix-blend-mode:passthrough"><path d="M13.75108,13.3393676171875L10.36335,17.2507976171875L10.36335,17.2507976171875C10.26507,17.3714776171875,10.11807,17.4419976171875,9.96245,17.4431176171875L9.96245,17.4431176171875C9.80683,17.4419976171875,9.65983,17.3714776171875,9.56156,17.2507976171875L6.172008,13.3393676171875L6.172008,13.3393676171875C6.00569594,13.1502146171875,5.955527,12.8855296171875,6.0410848,12.648636617187499L6.0410848,12.648636617187499C6.120451,12.4147626171875,6.328268,12.2481562171875,6.573803,12.22155761868806L13.347470000000001,12.22155761868806L13.347470000000001,12.2215576171875C13.59341,12.2467568171875,13.80217,12.4128456171875,13.882,12.6468306171875L13.882,12.6468306171875C13.968119999999999,12.8839706171875,13.91791,13.1492076171875,13.75108,13.3384676171875L13.75108,13.3393676171875L13.75108,13.3393676171875Z" transform="matrix(1,0,0,-1,0,24.443115234375)" fill="#FFFFFF" fill-opacity="1"/></g></g></g></svg>