<svg xmlns="http://www.w3.org/2000/svg" xmlns:xlink="http://www.w3.org/1999/xlink" fill="none" version="1.1" width="20" height="20" viewBox="0 0 20 20"><clipPath id="master_svg0_231_6946"><rect x="0" y="0" width="20" height="20" rx="0"/></clipPath><g clip-path="url(#master_svg0_231_6946)"><g><path d="M13.33331298828125,3.33349609375C13.79351298828125,3.33349609375,14.16661298828125,3.70659209375,14.16661298828125,4.16682909375L14.16661298828125,7.66682609375L18.51081298828125,4.62516609375C18.63811298828125,4.53590609375,18.80461298828125,4.52497609375,18.94251298828125,4.59682609375C19.08041298828125,4.66866609375,19.16681298828125,4.81132609375,19.16661298828125,4.96682609375L19.16661298828125,15.03349609375C19.16681298828125,15.18899609375,19.08041298828125,15.33169609375,18.94251298828125,15.40349609375C18.80461298828125,15.47529609375,18.63811298828125,15.46439609375,18.51081298828125,15.37519609375L14.16661298828125,12.33349609375L14.16661298828125,15.83349609375C14.16661298828125,16.29369609375,13.79351298828125,16.66679609375,13.33331298828125,16.66679609375L1.66664598828125,16.66679609375C1.2064089882812499,16.66679609375,0.83331298828125,16.29369609375,0.83331298828125,15.83349609375L0.83331298828125,4.16682909375C0.83331298828125,3.70659209375,1.2064089882812499,3.33349609375,1.66664598828125,3.33349609375L13.33331298828125,3.33349609375ZM6.16664298828125,7.35766609375C6.00822298828125,7.35763609375,5.87166298828125,7.46910609375,5.83998298828125,7.62432609375L5.83331298828125,7.69016609375L5.83331298828125,12.30849609375C5.83328298828125,12.54183609375,6.06683298828125,12.70299609375,6.28498298828125,12.62016609375L6.34581298828125,12.59016609375L9.97498298828125,10.280166093750001C10.15606298828125,10.16430609375,10.18175298828125,9.90987609375,10.02748298828125,9.76016609375L9.97498298828125,9.71849609375L6.34581298828125,7.40849609375C6.29204298828125,7.37516609375,6.22990298828125,7.35782609375,6.16664298828125,7.35849609375L6.16664298828125,7.35766609375Z" fill="#222222" fill-opacity="1"/></g></g></svg>